Coordinates
version=1
nRows=22
nColumns=24
inDegrees=yes

Units are S.I. units (second, meters, Newtons, ...)
Angles are in degrees.

endheader
time	pelvis_tilt	pelvis_list	pelvis_rotation	pelvis_tx	pelvis_ty	pelvis_tz	hip_flexion_r	hip_adduction_r	hip_rotation_r	knee_angle_r	ankle_angle_r	subtalar_angle_r	mtp_angle_r	hip_flexion_l	hip_adduction_l	hip_rotation_l	knee_angle_l	ankle_angle_l	subtalar_angle_l	mtp_angle_l	lumbar_extension	lumbar_bending	lumbar_rotation
      4.27500000	     -8.71016072	     -3.44903460	     11.86737489	     -1.29541415	     -0.04888476	      0.54871379	     36.71098142	     -3.46689126	    -18.19819873	    -13.11170061	     -1.24046823	      0.70398234	      0.21291585	     -8.14341199	     -3.64755910	      6.89871521	    -12.77431361	     15.21675181	      9.78389419	     10.35832732	      4.64622942	      0.76672736	    -13.36836208
      4.28000000	     -8.72090240	     -3.83709888	     11.88662231	     -1.28776633	     -0.05007509	      0.54887480	     36.73261239	     -3.02646818	    -18.14700204	    -13.53890111	     -1.88086735	      0.74685074	      0.41844660	     -8.19238435	     -4.19681643	      6.63363905	    -13.49094772	     15.18553993	     10.33573108	     10.78960198	      4.81111744	      1.20833414	    -13.38248250
      4.28500000	     -8.73896577	     -4.22699836	     11.82628753	     -1.28005310	     -0.05121425	      0.54911243	     36.78955032	     -2.55318464	    -18.01850207	    -14.04490879	     -2.65455550	      0.76835361	      0.77541577	     -8.23217126	     -4.73489925	      6.31904074	    -14.23204826	     15.04162173	     10.80682513	     11.30913198	      4.99172348	      1.66427585	    -13.30100475
      4.29000000	     -8.76907770	     -4.63432727	     11.75139286	     -1.27232103	     -0.05227860	      0.54933861	     36.88226458	     -2.07661574	    -17.84501913	    -14.63259284	     -3.51033521	      0.77955598	      1.08608262	     -8.23665106	     -5.28160335	      6.05844796	    -15.01231456	     14.81103898	     11.22294695	     11.84184015	      5.19366772	      2.14967390	    -13.19366837
      4.29500000	     -8.78468473	     -5.05097150	     11.61007824	     -1.26458150	     -0.05325196	      0.54971098	     37.00536227	     -1.55827779	    -17.66822370	    -15.31585723	     -4.45009632	      0.65579196	      1.37405790	     -8.21360553	     -5.84605113	      5.62269062	    -15.87642253	     14.48726296	     11.72473115	     12.56329513	      5.37266911	      2.64402058	    -13.06085093
      4.30000000	     -8.81490531	     -5.48826373	     11.45176902	     -1.25681528	     -0.05413840	      0.55006304	     37.16213367	     -1.03223488	    -17.43735989	    -16.06991651	     -5.36042732	      0.52742455	      1.50670125	     -8.14071378	     -6.42094313	      5.24536418	    -16.80470969	     14.05710697	     12.17442633	     13.31779805	      5.57695528	      3.17009727	    -12.87969335
      4.30500000	     -8.84829916	     -5.93211799	     11.25996061	     -1.24904160	     -0.05492916	      0.55046361	     37.34769238	     -0.49242541	    -17.16185931	    -16.90363326	     -6.21514527	      0.32625840	      1.48076240	     -8.02032570	     -7.00331271	      4.81945080	    -17.81736580	     13.51526454	     12.66509031	     14.18168179	      5.78365169	      3.70823609	    -12.66130370
      4.31000000	     -8.88379246	     -6.37524711	     11.04100339	     -1.24125908	     -0.05562708	      0.55090146	     37.55306774	      0.05496278	    -16.85762874	    -17.80668052	     -6.96593934	      0.03250773	      1.29322008	     -7.84535822	     -7.58624003	      4.35283297	    -18.92976819	     12.83861147	     13.17720741	     15.16667181	      5.98931143	      4.25042009	    -12.40547702
      4.31500000	     -8.91929139	     -6.80157994	     10.78351691	     -1.23347926	     -0.05623087	      0.55139136	     37.77319047	      0.60439962	    -16.53661365	    -18.77608174	     -7.60010031	     -0.34883668	      0.94295439	     -7.62829265	     -8.15410647	      3.85427861	    -20.12738884	     12.01429736	     13.71477610	     16.30592950	      6.18403629	      4.78188393	    -12.11246179
      4.32000000	     -8.96625412	     -7.21704355	     10.51668082	     -1.22571072	     -0.05675389	      0.55189246	     38.00157770	      1.14660249	    -16.19556959	    -19.77618605	     -8.10102421	     -0.81139372	      0.48771534	     -7.33570009	     -8.71382766	      3.34871410	    -21.43946011	     11.05349179	     14.26695354	     17.49800883	      6.38582307	      5.30120712	    -11.82465151
      4.32500000	     -8.96915410	     -7.59641162	     10.18918649	     -1.21793178	     -0.05712256	      0.55245330	     38.17110209	      1.70269583	    -15.85826845	    -20.79625874	     -8.45147579	     -1.27111394	     -0.16056548	     -7.07502856	     -9.24184918	      2.83529955	    -22.78479664	      9.86867763	     14.75928100	     19.03577493	      6.52124089	      5.80336095	    -11.42222284
      4.33000000	     -9.00896474	     -7.98337286	      9.88274275	     -1.21016167	     -0.05744675	      0.55299447	     38.34203196	      2.26069814	    -15.49730760	    -21.76483193	     -8.68087866	     -1.83978734	     -0.71564770	     -6.67534654	     -9.78475209	      2.31248718	    -24.30012284	      8.57272265	     15.27349197	     20.42122762	      6.69782497	      6.30451185	    -11.10769584
      4.33500000	     -9.07812544	     -8.33882965	      9.59398712	     -1.20244512	     -0.05769146	      0.55356275	     38.49638666	      2.79282664	    -15.13010777	    -22.65505023	     -8.84141411	     -2.51645317	     -1.06275837	     -6.15380619	    -10.31226681	      1.80093329	    -25.96822175	      7.16198471	     15.93718665	     21.53987878	      6.89347709	      6.75417281	    -10.85066476
      4.34000000	     -9.16271780	     -8.70802627	      9.28929010	     -1.19475136	     -0.05785631	      0.55413560	     38.62832262	      3.34623788	    -14.87350295	    -23.47247804	     -8.96397438	     -3.18262236	     -1.29594108	     -5.54668613	    -10.85935784	      1.34157259	    -27.74225732	      5.63840238	     16.61047100	     22.57493458	      7.10027811	      7.22580074	    -10.52008945
      4.34500000	     -9.13024968	     -8.99484453	      8.94894693	     -1.18711156	     -0.05777873	      0.55482005	     38.56957791	      3.91765028	    -14.46378591	    -24.19441669	     -8.95126513	     -3.89467939	     -1.49741393	     -5.05228263	    -11.34248919	      0.86012551	    -29.48592206	      3.81423615	     16.97888620	     24.20230905	      7.14064223	      7.62260643	    -10.16248399
      4.35000000	     -9.19397870	     -9.30466859	      8.65262858	     -1.17947887	     -0.05771907	      0.55546719	     38.54964150	      4.46974241	    -14.14527973	    -24.80156328	     -8.84980976	     -4.48635688	     -1.44185622	     -4.33378719	    -11.86153288	      0.44023719	    -31.41956832	      2.02599572	     17.57739417	     25.08265564	      7.30274760	      8.01745292	     -9.90919221
      4.35500000	     -9.22198971	     -9.58602462	      8.35278522	     -1.17196318	     -0.05752688	      0.55614630	     38.44008357	      5.02457118	    -13.83096039	    -25.31029427	     -8.71386526	     -5.05829627	     -1.24113555	     -3.58676717	    -12.36004781	      0.06811093	    -33.41187909	      0.16785207	     18.07362287	     25.93119188	      7.39770325	      8.38502989	     -9.62654394
      4.36000000	     -9.24721810	     -9.88564916	      8.05269317	     -1.16453570	     -0.05726465	      0.55678366	     38.28059068	      5.59178067	    -13.60593842	    -25.73105457	     -8.49979582	     -5.41882764	     -0.98586101	     -2.75986436	    -12.87515887	     -0.25339132	    -35.49875384	     -1.64791735	     18.46694712	     26.46397666	      7.47706624	      8.78217881	     -9.32718493
      4.36500000	     -9.25473732	    -10.11493971	      7.78362958	     -1.15722087	     -0.05685821	      0.55753571	     38.02826732	      6.14190641	    -13.22357912	    -26.00939858	     -8.30765414	     -6.09591063	     -0.48739576	     -1.89457784	    -13.32374797	     -0.46546505	    -37.56185728	     -3.53808381	     18.73938750	     27.30376708	      7.51533821	      9.07803220	     -9.10625366
      4.37000000	     -9.25457109	    -10.41591882	      7.51838231	     -1.14994021	     -0.05637624	      0.55814179	     37.72357095	      6.72519764	    -13.01028445	    -26.21060381	     -8.02091000	     -6.35976324	     -0.13510062	     -0.95826073	    -13.81992981	     -0.59322232	    -39.70771550	     -5.26626884	     18.83571399	     27.64953494	      7.55542702	      9.46805798	     -8.85381692
      4.37500000	     -9.26925454	    -10.65942387	      7.28981716	     -1.14279759	     -0.05584705	      0.55885488	     37.38526483	      7.27539195	    -12.70657250	    -26.31363484	     -7.74282439	     -6.91648422	      0.40707850	      0.06775772	    -14.26263331	     -0.63996646	    -41.84985054	     -6.92096767	     18.93549290	     28.22863746	      7.59196435	      9.76442753	     -8.68757283
      4.38000000	     -9.25161545	    -10.93338876	      7.07153961	     -1.13571381	     -0.05520712	      0.55944032	     36.96456300	      7.83869632	    -12.47537000	    -26.33076904	     -7.41688586	     -7.25499610	      0.87615465	      1.11443148	    -14.70183340	     -0.59516519	    -44.00247065	     -8.39750709	     18.84189978	     28.63109658	      7.59366036	     10.11275685	     -8.51329886
